<mxfile host="app.diagrams.net" modified="2024-05-22T11:00:29.698Z" agent="Mozilla/5.0 (Macintosh; Intel Mac OS X 10.15; rv:126.0) Gecko/20100101 Firefox/126.0" etag="1GSmL-S-TBwXlMegHtOR" version="24.4.4" type="device">
  <diagram name="Page-1" id="wxGNy2yxLzT9IRQbznUG">
    <mxGraphModel dx="786" dy="454" grid="1" gridSize="10" guides="1" tooltips="1" connect="1" arrows="1" fold="1" page="1" pageScale="1" pageWidth="850" pageHeight="1100" math="1" shadow="0">
      <root>
        <mxCell id="0" />
        <mxCell id="1" parent="0" />
        <mxCell id="dhwxoKA-kisVsGGQlCpU-11" value="&lt;div&gt;\(\text{To be}\)&lt;/div&gt;&lt;div&gt;\(\text{inserted}\)&lt;/div&gt;" style="text;html=1;align=center;verticalAlign=middle;whiteSpace=wrap;rounded=0;" vertex="1" parent="1">
          <mxGeometry x="160" y="100" width="60" height="30" as="geometry" />
        </mxCell>
        <mxCell id="dhwxoKA-kisVsGGQlCpU-12" value="" style="endArrow=classicThin;html=1;rounded=0;exitX=1;exitY=0.5;exitDx=0;exitDy=0;edgeStyle=orthogonalEdgeStyle;curved=1;endFill=1;dashed=1;" edge="1" parent="1">
          <mxGeometry width="50" height="50" relative="1" as="geometry">
            <mxPoint x="210" y="160" as="sourcePoint" />
            <mxPoint x="270" y="180" as="targetPoint" />
            <Array as="points">
              <mxPoint x="240" y="160" />
              <mxPoint x="240" y="180" />
            </Array>
          </mxGeometry>
        </mxCell>
        <mxCell id="dhwxoKA-kisVsGGQlCpU-19" value="" style="endArrow=classicThin;html=1;rounded=0;entryX=0;entryY=0.5;entryDx=0;entryDy=0;endFill=1;edgeStyle=orthogonalEdgeStyle;curved=1;dashed=1;" edge="1" parent="1">
          <mxGeometry width="50" height="50" relative="1" as="geometry">
            <mxPoint x="530" y="290" as="sourcePoint" />
            <mxPoint x="580" y="310" as="targetPoint" />
            <Array as="points">
              <mxPoint x="550" y="290" />
              <mxPoint x="550" y="310" />
            </Array>
          </mxGeometry>
        </mxCell>
        <mxCell id="dhwxoKA-kisVsGGQlCpU-23" value="" style="endArrow=classicThin;html=1;rounded=0;endFill=1;" edge="1" parent="1">
          <mxGeometry width="50" height="50" relative="1" as="geometry">
            <mxPoint x="400" y="220" as="sourcePoint" />
            <mxPoint x="400" y="250" as="targetPoint" />
          </mxGeometry>
        </mxCell>
        <mxCell id="dhwxoKA-kisVsGGQlCpU-26" value="" style="endArrow=classicThin;html=1;rounded=0;edgeStyle=orthogonalEdgeStyle;curved=1;dashed=1;endFill=1;entryX=1;entryY=0.5;entryDx=0;entryDy=0;" edge="1" parent="1" target="dhwxoKA-kisVsGGQlCpU-43">
          <mxGeometry width="50" height="50" relative="1" as="geometry">
            <mxPoint x="600" y="340" as="sourcePoint" />
            <mxPoint x="140" y="280" as="targetPoint" />
            <Array as="points">
              <mxPoint x="600" y="380" />
              <mxPoint x="180" y="380" />
              <mxPoint x="180" y="290" />
            </Array>
          </mxGeometry>
        </mxCell>
        <mxCell id="dhwxoKA-kisVsGGQlCpU-27" value="&lt;div&gt;\(\texttt{T1} \text{ is returned}\)&lt;/div&gt;&lt;div&gt;\(\text{to the caller}\)&lt;br&gt;&lt;/div&gt;" style="text;html=1;align=center;verticalAlign=middle;whiteSpace=wrap;rounded=0;" vertex="1" parent="1">
          <mxGeometry x="340" y="390" width="80" height="30" as="geometry" />
        </mxCell>
        <mxCell id="dhwxoKA-kisVsGGQlCpU-28" value="&lt;div&gt;\(\text{Cache before }\)&lt;/div&gt;&lt;div&gt;\(\texttt{put(T7)}\)&lt;/div&gt;" style="text;html=1;align=center;verticalAlign=middle;whiteSpace=wrap;rounded=0;" vertex="1" parent="1">
          <mxGeometry x="15" y="150" width="110" height="30" as="geometry" />
        </mxCell>
        <mxCell id="dhwxoKA-kisVsGGQlCpU-29" value="\(\texttt{T1}\)" style="whiteSpace=wrap;html=1;aspect=fixed;" vertex="1" parent="1">
          <mxGeometry x="480" y="160" width="40" height="40" as="geometry" />
        </mxCell>
        <mxCell id="dhwxoKA-kisVsGGQlCpU-30" value="\(\texttt{T2}\)" style="whiteSpace=wrap;html=1;aspect=fixed;" vertex="1" parent="1">
          <mxGeometry x="440" y="160" width="40" height="40" as="geometry" />
        </mxCell>
        <mxCell id="dhwxoKA-kisVsGGQlCpU-31" value="\(\texttt{T3}\)" style="whiteSpace=wrap;html=1;aspect=fixed;" vertex="1" parent="1">
          <mxGeometry x="400" y="160" width="40" height="40" as="geometry" />
        </mxCell>
        <mxCell id="dhwxoKA-kisVsGGQlCpU-32" value="\(\texttt{T4}\)" style="whiteSpace=wrap;html=1;aspect=fixed;" vertex="1" parent="1">
          <mxGeometry x="360" y="160" width="40" height="40" as="geometry" />
        </mxCell>
        <mxCell id="dhwxoKA-kisVsGGQlCpU-33" value="\(\texttt{T5}\)" style="whiteSpace=wrap;html=1;aspect=fixed;" vertex="1" parent="1">
          <mxGeometry x="320" y="160" width="40" height="40" as="geometry" />
        </mxCell>
        <mxCell id="dhwxoKA-kisVsGGQlCpU-34" value="\(\texttt{T6}\)" style="whiteSpace=wrap;html=1;aspect=fixed;" vertex="1" parent="1">
          <mxGeometry x="280" y="160" width="40" height="40" as="geometry" />
        </mxCell>
        <mxCell id="dhwxoKA-kisVsGGQlCpU-35" value="\(\texttt{T7}\)" style="whiteSpace=wrap;html=1;aspect=fixed;" vertex="1" parent="1">
          <mxGeometry x="280" y="270" width="40" height="40" as="geometry" />
        </mxCell>
        <mxCell id="dhwxoKA-kisVsGGQlCpU-36" value="\(\texttt{T2}\)" style="whiteSpace=wrap;html=1;aspect=fixed;" vertex="1" parent="1">
          <mxGeometry x="480" y="270" width="40" height="40" as="geometry" />
        </mxCell>
        <mxCell id="dhwxoKA-kisVsGGQlCpU-37" value="\(\texttt{T3}\)" style="whiteSpace=wrap;html=1;aspect=fixed;" vertex="1" parent="1">
          <mxGeometry x="440" y="270" width="40" height="40" as="geometry" />
        </mxCell>
        <mxCell id="dhwxoKA-kisVsGGQlCpU-38" value="\(\texttt{T4}\)" style="whiteSpace=wrap;html=1;aspect=fixed;" vertex="1" parent="1">
          <mxGeometry x="400" y="270" width="40" height="40" as="geometry" />
        </mxCell>
        <mxCell id="dhwxoKA-kisVsGGQlCpU-39" value="\(\texttt{T5}\)" style="whiteSpace=wrap;html=1;aspect=fixed;" vertex="1" parent="1">
          <mxGeometry x="360" y="270" width="40" height="40" as="geometry" />
        </mxCell>
        <mxCell id="dhwxoKA-kisVsGGQlCpU-40" value="\(\texttt{T6}\)" style="whiteSpace=wrap;html=1;aspect=fixed;" vertex="1" parent="1">
          <mxGeometry x="320" y="270" width="40" height="40" as="geometry" />
        </mxCell>
        <mxCell id="dhwxoKA-kisVsGGQlCpU-41" value="\(\texttt{T1}\)" style="whiteSpace=wrap;html=1;aspect=fixed;" vertex="1" parent="1">
          <mxGeometry x="580" y="290" width="40" height="40" as="geometry" />
        </mxCell>
        <mxCell id="dhwxoKA-kisVsGGQlCpU-42" value="&lt;div&gt;\(\text{Cache is full,}\)&lt;/div&gt;&lt;div&gt;\(\text{evict LRU}\)&lt;/div&gt;" style="text;html=1;align=center;verticalAlign=middle;whiteSpace=wrap;rounded=0;" vertex="1" parent="1">
          <mxGeometry x="570" y="250" width="60" height="30" as="geometry" />
        </mxCell>
        <mxCell id="dhwxoKA-kisVsGGQlCpU-43" value="&lt;div&gt;\(\text{Cache after }\)&lt;/div&gt;&lt;div&gt;\(\texttt{put(T7)}\)&lt;/div&gt;" style="text;html=1;align=center;verticalAlign=middle;whiteSpace=wrap;rounded=0;" vertex="1" parent="1">
          <mxGeometry x="15" y="275" width="110" height="30" as="geometry" />
        </mxCell>
        <mxCell id="dhwxoKA-kisVsGGQlCpU-44" value="\(\texttt{T7}\)" style="whiteSpace=wrap;html=1;aspect=fixed;" vertex="1" parent="1">
          <mxGeometry x="170" y="140" width="40" height="40" as="geometry" />
        </mxCell>
      </root>
    </mxGraphModel>
  </diagram>
</mxfile>
